<svg width="30" height="32" viewBox="0 0 30 32" fill="none" xmlns="http://www.w3.org/2000/svg">
<path d="M15.2045 11.7337C14.171 11.7337 13.2032 12.1293 12.4704 12.8522C11.7411 13.5751 11.3367 14.5299 11.3367 15.5494C11.3367 16.569 11.7411 17.5238 12.4704 18.2467C13.2032 18.9662 14.171 19.3652 15.2045 19.3652C16.238 19.3652 17.2058 18.9662 17.9385 18.2467C18.6679 17.5238 19.0723 16.569 19.0723 15.5494C19.0723 14.5299 18.6679 13.5751 17.9385 12.8522C17.5806 12.4964 17.1546 12.2143 16.6853 12.0223C16.2159 11.8302 15.7126 11.7322 15.2045 11.7337ZM29.4556 19.7642L27.195 17.858C27.3022 17.2101 27.3575 16.5486 27.3575 15.8904C27.3575 15.2323 27.3022 14.5674 27.195 13.9229L29.4556 12.0167C29.6263 11.8725 29.7485 11.6804 29.806 11.466C29.8634 11.2516 29.8533 11.025 29.777 10.8164L29.7459 10.7278C29.1238 9.01149 28.1916 7.42063 26.9945 6.03224L26.9323 5.96063C26.787 5.79202 26.5932 5.67081 26.3766 5.61298C26.1601 5.55515 25.9308 5.56342 25.7191 5.63669L22.9124 6.62216C21.8755 5.78331 20.721 5.12178 19.4698 4.66144L18.9271 1.76638C18.8862 1.54829 18.7789 1.34765 18.6196 1.19111C18.4603 1.03458 18.2566 0.929565 18.0353 0.89002L17.942 0.872971C16.1446 0.552434 14.2505 0.552434 12.4531 0.872971L12.3598 0.89002C12.1386 0.929565 11.9348 1.03458 11.7755 1.19111C11.6162 1.34765 11.5089 1.54829 11.468 1.76638L10.9219 4.67508C9.68248 5.13909 8.5279 5.79902 7.50342 6.62898L4.67601 5.63669C4.46436 5.56283 4.23493 5.55427 4.01823 5.61213C3.80152 5.67 3.60779 5.79155 3.46279 5.96063L3.40057 6.03224C2.20564 7.42211 1.2737 9.01257 0.649209 10.7278L0.6181 10.8164C0.462558 11.2427 0.590448 11.7201 0.939553 12.0167L3.22775 13.9433C3.12059 14.5844 3.06875 15.2391 3.06875 15.887C3.06875 16.5417 3.12059 17.1965 3.22775 17.8307L0.946466 19.7573C0.775701 19.9016 0.653482 20.0936 0.596062 20.308C0.538641 20.5225 0.548739 20.749 0.625013 20.9576L0.656122 21.0463C1.28175 22.7615 2.20463 24.3471 3.40748 25.7418L3.4697 25.8134C3.61506 25.982 3.80879 26.1032 4.02537 26.1611C4.24195 26.2189 4.47121 26.2106 4.68293 26.1374L7.51033 25.1451C8.54036 25.9805 9.68792 26.642 10.9288 27.099L11.4749 30.0077C11.5159 30.2258 11.6231 30.4264 11.7824 30.5829C11.9417 30.7395 12.1455 30.8445 12.3667 30.884L12.46 30.9011C14.2751 31.2233 16.1339 31.2233 17.9489 30.9011L18.0422 30.884C18.2635 30.8445 18.4673 30.7395 18.6265 30.5829C18.7858 30.4264 18.8931 30.2258 18.934 30.0077L19.4767 27.1126C20.7279 26.6489 21.8824 25.9907 22.9193 25.1519L25.726 26.1374C25.9377 26.2112 26.1671 26.2198 26.3838 26.1619C26.6005 26.1041 26.7942 25.9825 26.9392 25.8134L27.0014 25.7418C28.2043 24.3403 29.1272 22.7615 29.7528 21.0463L29.7839 20.9576C29.9325 20.5348 29.8047 20.0608 29.4556 19.7642ZM15.2045 21.5442C11.8482 21.5442 9.12797 18.8605 9.12797 15.5494C9.12797 12.2384 11.8482 9.55473 15.2045 9.55473C18.5607 9.55473 21.281 12.2384 21.281 15.5494C21.281 18.8605 18.5607 21.5442 15.2045 21.5442Z" fill="#6B5AD0"/>
</svg>
