<svg width="27" height="33" viewBox="0 0 27 33" fill="none" xmlns="http://www.w3.org/2000/svg">
<path d="M1.53906 30.5541V1.87453C1.53906 1.63178 1.63567 1.39897 1.80764 1.22732C1.9796 1.05566 2.21284 0.959229 2.45604 0.959229H20.2637C20.5068 0.959442 20.7399 1.05602 20.9117 1.22772L25.7227 6.03002C25.8082 6.1153 25.8761 6.21662 25.9222 6.32815C25.9684 6.43968 25.992 6.55922 25.9917 6.67989V30.5541C25.9917 30.6743 25.968 30.7933 25.9219 30.9044C25.8758 31.0154 25.8083 31.1164 25.7231 31.2013C25.638 31.2863 25.5369 31.3538 25.4256 31.3998C25.3144 31.4458 25.1951 31.4694 25.0747 31.4694H2.45604C2.33562 31.4694 2.21638 31.4458 2.10513 31.3998C1.99387 31.3538 1.89279 31.2863 1.80764 31.2013C1.72249 31.1164 1.65495 31.0154 1.60886 30.9044C1.56278 30.7933 1.53906 30.6743 1.53906 30.5541V30.5541Z" stroke="#6B5AD0" stroke-width="1.5" stroke-linecap="round" stroke-linejoin="round"/>
<path d="M19.8789 6.14598V1.49927C19.8791 1.39261 19.9109 1.28838 19.9704 1.19975C20.0299 1.11112 20.1143 1.04205 20.213 1.00126C20.3118 0.960464 20.4204 0.949772 20.5252 0.970529C20.63 0.991287 20.7263 1.04257 20.802 1.1179L25.8331 6.13987C25.9093 6.21511 25.9614 6.3113 25.9826 6.41618C26.0038 6.52106 25.9933 6.62987 25.9523 6.72873C25.9113 6.82759 25.8417 6.91203 25.7524 6.97126C25.6632 7.03049 25.5582 7.06183 25.4511 7.06128H20.7959C20.5527 7.06128 20.3194 6.96485 20.1475 6.7932C19.9755 6.62154 19.8789 6.38873 19.8789 6.14598Z" fill="#6B5AD0" stroke="#6B5AD0" stroke-width="1.5" stroke-linecap="round" stroke-linejoin="round"/>
<path d="M11.6795 13.7964L13.2674 10.4357C13.3104 10.3396 13.3803 10.258 13.4687 10.2008C13.5571 10.1435 13.6603 10.113 13.7657 10.113C13.8711 10.113 13.9742 10.1435 14.0626 10.2008C14.151 10.258 14.2209 10.3396 14.2639 10.4357L15.8533 13.7964L19.4035 14.3394C19.859 14.4081 20.0393 14.9939 19.7092 15.3295L17.1417 17.9427L17.7469 21.636C17.8248 22.1104 17.3495 22.4719 16.9414 22.2477L13.7657 20.504L10.5899 22.2477C10.1818 22.4719 9.70653 22.1104 9.78447 21.6375L10.3897 17.9427L7.82214 15.3295C7.4905 14.9939 7.67237 14.4081 8.1278 14.3379L11.6795 13.7964V13.7964Z" stroke="#6B5AD0" stroke-width="1.5" stroke-linecap="round" stroke-linejoin="round"/>
</svg>
