<svg width="32" height="29" viewBox="0 0 32 29" fill="none" xmlns="http://www.w3.org/2000/svg">
<path d="M16.175 28.4694C15.3636 28.4658 14.5863 28.1716 14.0111 27.6504C13.4359 27.1291 13.1089 26.4227 13.1009 25.6837H19.2186C19.2223 26.056 19.1448 26.4253 18.9907 26.7702C18.7928 27.1834 18.4899 27.5479 18.107 27.8337C17.7241 28.1194 17.2721 28.3183 16.7883 28.4137H16.718C16.5392 28.4474 16.3575 28.4661 16.175 28.4694ZM28.4103 24.2909H3.93969V21.5052L6.99852 20.1123V12.4516C6.91795 10.4864 7.40525 8.53644 8.4117 6.79659C8.90698 5.99886 9.58237 5.30583 10.3933 4.76322C11.2042 4.22062 12.1323 3.84077 13.1162 3.64873V0.612305H19.2339V3.64873C23.1782 4.50395 25.3515 7.62952 25.3515 12.4516V20.1123L28.4103 21.5052V24.2909ZM31.4233 11.7552H28.3645C28.2941 9.97613 27.7928 8.23325 26.8965 6.65125C26.0002 5.06924 24.731 3.68722 23.1797 2.60409L25.3515 0.612305C27.1808 1.90833 28.6589 3.56949 29.6721 5.4678C30.7197 7.43317 31.3156 9.57266 31.4233 11.7552ZM3.93969 11.7552H0.880859C0.987918 9.57255 1.58439 7.43313 2.63204 5.4678C3.64522 3.56949 5.12338 1.90833 6.95264 0.612305L9.12441 2.60409C7.57299 3.68709 6.30367 5.06908 5.40734 6.65111C4.51101 8.23315 4.00983 9.97609 3.93969 11.7552Z" fill="#6B5AD0"/>
</svg>
